HIERARCHY
ROOT Hips
{
  OFFSET 196.326 95.9168 97.7182
  CHANNELS 6 Xposition Yposition Zposition Zrotation Xrotation Yrotation
  JOINT LeftUpLeg
  {
    OFFSET 8.64259 1.95398 -2.38835
    CHANNELS 3 Zrotation Xrotation Yrotation
    JOINT LeftLeg
    {
      OFFSET 43.7702 0 0
      CHANNELS 3 Zrotation Xrotation Yrotation
      JOINT LeftFoot
      {
        OFFSET 40.6238 0 0
        CHANNELS 3 Zrotation Xrotation Yrotation
        JOINT LeftToeBase
        {
          OFFSET 12.7242 0 0
          CHANNELS 3 Zrotation Xrotation Yrotation
          End Site
          {
            OFFSET 0 0 0
          }
        }
      }
    }
  }
  JOINT RightUpLeg
  {
    OFFSET -8.2249 1.95398 -2.59336
    CHANNELS 3 Zrotation Xrotation Yrotation
    JOINT RightLeg
    {
      OFFSET 43.5653 0 0
      CHANNELS 3 Zrotation Xrotation Yrotation
      JOINT RightFoot
      {
        OFFSET 40.6238 0 0
        CHANNELS 3 Zrotation Xrotation Yrotation
        JOINT RightToeBase
        {
          OFFSET 12.7242 0 0
          CHANNELS 3 Zrotation Xrotation Yrotation
          End Site
          {
            OFFSET 0 0 0
          }
        }
      }
    }
  }
  JOINT Spine
  {
    OFFSET 0.165834 0.87714 6.61349
    CHANNELS 3 Zrotation Xrotation Yrotation
    JOINT Spine1
    {
      OFFSET 7.38963 1.71661e-005 0
      CHANNELS 3 Zrotation Xrotation Yrotation
      JOINT Spine2
      {
        OFFSET 11.9445 1.14441e-005 0
        CHANNELS 3 Zrotation Xrotation Yrotation
        JOINT Spine3
        {
          OFFSET 14.7254 4.19617e-005 0
          CHANNELS 3 Zrotation Xrotation Yrotation
          JOINT Spine4
          {
            OFFSET 10.9679 0 0
            CHANNELS 3 Zrotation Xrotation Yrotation
            JOINT RightShoulder
            {
              OFFSET 2.46616 -1.6653 3.69651
              CHANNELS 3 Zrotation Xrotation Yrotation
              JOINT RightArm
              {
                OFFSET 13.0012 0 0
                CHANNELS 3 Zrotation Xrotation Yrotation
                JOINT RightForeArm
                {
                  OFFSET 28.7848 1.52588e-005 0
                  CHANNELS 3 Zrotation Xrotation Yrotation
                  JOINT RightHand
                  {
                    OFFSET 26.5688 1.52588e-005 0
                    CHANNELS 3 Zrotation Xrotation Yrotation
                    End Site
                    {
                      OFFSET 0 0 0
                    }
                  }
                }
              }
            }
            JOINT LeftShoulder
            {
              OFFSET 2.38034 -1.29275 -3.75231
              CHANNELS 3 Zrotation Xrotation Yrotation
              JOINT LeftArm
              {
                OFFSET 16.3182 6.10351e-005 0
                CHANNELS 3 Zrotation Xrotation Yrotation
                JOINT LeftForeArm
                {
                  OFFSET 27.0901 0 0
                  CHANNELS 3 Zrotation Xrotation Yrotation
                  JOINT LeftHand
                  {
                    OFFSET 24.5451 1.52588e-005 0
                    CHANNELS 3 Zrotation Xrotation Yrotation
                    End Site
                    {
                      OFFSET 0 0 0
                    }
                  }
                }
              }
            }
            JOINT Neck
            {
              OFFSET 5.0226 -0.0266342 0
              CHANNELS 3 Zrotation Xrotation Yrotation
              JOINT Head
              {
                OFFSET 6.69363 2.86102e-005 0
                CHANNELS 3 Zrotation Xrotation Yrotation
                End Site
                {
                  OFFSET 0 0 0
                }
              }
            }
          }
        }
      }
    }
  }
}
MOTION
Frames:	6
Frame Time:	0.0416667
52.9624 95.5801 15.0113 83.5772 -12.2115 86.0063 -166.87 26.4725 92.7059 -16.1458 -0.513889 -4.81498 55.8909 1.9325 10.0339 54.7431 24.4223 -11.7974 174.278 7.49045 84.1592 -18.3948 28.1173 0.289379 68.088 -2.90098 -1.57415 40.8951 1.3897 14.6034 0.0317749 7.35429 -90.0627 12.1655 0.033575 -0.128739 0.494565 0.0278689 -0.130092 -22.0405 0.0707237 -0.112692 -2.02789 0.0707139 -0.112695 82.8202 -47.93 -112.449 22.5152 -0.979951 18.5971 -10.7388 -9.50391 -48.103 -10.1783 -0.8036 3.82747 -102.477 -42.6466 57.2717 -34.0913 3.42467 11.4745 4.67004 5.2061 -29.6785 9.56648 0.622633 2.44857 8.41254 19.6174 0.5232 1.36964 20.1191 14.2367 
55.7434 95.1284 14.0251 82.4538 -6.74355 87.1599 -168.991 29.7788 93.6138 -11.3173 -1.13497 -4.20857 57.2273 2.24342 11.362 56.0594 24.4069 -15.5128 173.872 4.90677 84.7556 -15.9276 33.076 0.867959 67.4025 -4.0262 -2.16833 41.9473 1.54556 13.7889 0.239787 7.33324 -90.0462 12.2077 0.45477 -0.142983 0.536859 0.447991 -0.162852 -21.9989 0.476728 0.000312684 -1.9863 0.476729 0.000311809 82.8672 -48.3423 -112.226 22.6979 -1.61085 17.412 -12.334 -11.0089 -48.5623 -10.1572 -0.756771 3.17282 -102.068 -43.1331 58.1207 -35.6118 3.12932 13.6329 4.36187 4.09512 -29.8709 9.0278 0.562113 2.16139 7.56976 17.7326 0.610345 2.61853 18.4315 14.2472 
59.4393 94.2908 12.2371 81.2172 -3.17846 88.5649 -169.417 32.6418 94.1129 -10.0205 -7.14408 -3.61801 58.3517 2.25991 11.6939 49.6529 19.9941 -11.5585 173.339 4.0491 84.7095 -17.1834 36.2609 1.35765 65.7664 -4.36595 -2.37854 45.8095 2.0772 11.9387 0.437508 7.28524 -89.9303 12.3035 0.902653 0.0378002 0.632835 0.903434 -0.00197145 -21.9046 0.849558 0.307361 -1.89198 0.849556 0.307356 82.2135 -49.07 -112.948 23.435 -2.59415 15.7487 -12.8254 -10.909 -50.135 -11.9382 -0.888416 3.45945 -100.817 -43.4729 60.1875 -37.3856 2.32069 15.4837 4.91462 4.75923 -29.2953 8.74632 0.545838 2.15884 7.4198 16.226 -0.639283 3.24022 17.2665 14.0383 
64.1405 93.2187 9.17545 80.9052 0.753011 90.3825 -167.485 36.0587 93.4047 -16.8234 -5.84407 -5.26235 59.9784 4.00978 14.2422 47.8433 17.6865 -15.0436 172.45 2.06141 84.1205 -19.573 33.8794 1.77827 60.5843 -3.52679 -2.01433 53.6764 2.45057 5.96426 0.584379 7.34069 -89.9178 12.1925 1.20047 0.0300017 0.522065 1.20064 -0.0228773 -22.0172 1.13594 0.38945 -2.00452 1.13596 0.389456 82.6298 -49.1165 -112.303 25.3037 -3.64851 13.6875 -14.1793 -11.3254 -51.6367 -12.4877 -0.911782 3.33344 -100.203 -43.3866 61.0961 -38.7916 1.94105 16.7981 4.83996 4.81488 -27.9939 8.51388 0.534101 2.15273 8.70038 14.9364 -1.98038 2.85929 16.2218 13.9987 
69.8957 92.5419 4.47155 80.3902 3.81939 91.3825 -165.851 37.5865 89.9273 -25.2478 -2.94112 -6.08286 60.0994 4.61622 14.4738 44.8538 13.5174 -26.808 171.143 2.49332 80.6792 -24.9538 27.5852 0.31809 52.5748 -2.04229 -1.08236 56.0413 1.91498 1.4121 0.776393 7.41542 -89.7688 12.0429 1.65284 0.281475 0.373024 1.66364 0.208425 -22.1691 1.49183 0.765317 -2.15645 1.49182 0.7653 82.4649 -49.1032 -112.556 26.4338 -4.12693 12.3156 -14.9419 -12.7393 -51.1685 -13.5858 -0.986969 3.44501 -100.474 -43.5073 60.7295 -38.8907 2.65942 16.0297 4.1948 5.06959 -25.9154 7.64031 0.444553 1.7386 11.1074 13.5318 -2.6757 1.47761 14.8216 13.6824 
75.649 92.4306 -1.07768 80.497 8.97619 92.4504 -165.68 35.8435 86.6586 -30.0828 1.55572 -6.34042 62.5361 8.87171 17.7723 33.5747 5.92078 -40.5829 173.534 7.11155 79.7255 -37.3612 21.7392 -3.24393 43.2546 -0.427216 0.277723 29.4411 0.0630333 -0.393573 0.774154 7.39227 -89.802 12.0888 1.63259 0.215471 0.418887 1.64048 0.143385 -22.1233 1.49231 0.696272 -2.11065 1.49235 0.696277 83.4529 -47.5566 -111.615 29.2889 -5.24877 11.1859 -13.1885 -13.4948 -48.5586 -14.454 -1.03549 3.41268 -100.813 -43.1165 60.0403 -38.0146 4.04806 14.7727 3.89795 6.56737 -25.6719 7.12614 0.368203 1.14719 10.6813 12.655 -2.07871 0.576855 13.6736 12.9483 
